<?xml version="1.0" encoding="utf-8"?>
<!-- Generator: Adobe Illustrator 22.0.1, SVG Export Plug-In . SVG Version: 6.00 Build 0)  -->
<svg version="1.1" id="Layer_1" xmlns="http://www.w3.org/2000/svg" xmlns:xlink="http://www.w3.org/1999/xlink" x="0px" y="0px"
	 viewBox="0 0 1024 1024" style="enable-background:new 0 0 1024 1024;" xml:space="preserve">
<style type="text/css">
	.st0{fill:none;}
	.st1{fill:url(#SVGID_1_);}
	.st2{fill:url(#SVGID_2_);}
	.st3{fill:url(#SVGID_3_);}
	.st4{fill:url(#SVGID_4_);}
	.st5{fill:url(#SVGID_5_);}
	.st6{fill:url(#SVGID_6_);}
</style>
<g>
	<path class="st0" d="M23.1,23.2c0,107.2,82.7,193.9,184.8,193.9"/>
	
		<linearGradient id="SVGID_1_" gradientUnits="userSpaceOnUse" x1="761.0406" y1="729.7365" x2="583.032" y2="-11.5668" gradientTransform="matrix(-0.9144 0.4048 -0.5644 -1.2749 1102.8708 694.7624)">
		<stop  offset="6.477701e-04" style="stop-color:#460055"/>
		<stop  offset="1" style="stop-color:#391F7A"/>
	</linearGradient>
	<path class="st1" d="M48,130.1C25.8,77.5,36.9,21.4,72.9,4.7s83.1,12.4,105.2,65l345.3,818.2c22.2,52.6,11,108.7-24.9,125.4
		c-35.9,16.7-83.1-12.4-105.2-65L48,130.1z"/>
	
		<linearGradient id="SVGID_2_" gradientUnits="userSpaceOnUse" x1="495.2782" y1="723.9185" x2="323.0388" y2="6.6409" gradientTransform="matrix(1.760615e-03 1 -1 1.760615e-03 741.6273 -248.9341)">
		<stop  offset="6.477701e-04" style="stop-color:#2AFFE4"/>
		<stop  offset="1" style="stop-color:#0F00D4"/>
	</linearGradient>
	<path class="st2" d="M71.3,236.1C32,236.2,0.1,202.8,0,161.6s31.7-74.7,71-74.8l611.8-1.1c39.3-0.1,71.2,33.3,71.3,74.5
		c0.1,41.2-31.7,74.7-71,74.8L71.3,236.1z"/>
	
		<linearGradient id="SVGID_3_" gradientUnits="userSpaceOnUse" x1="1201.5255" y1="455.2985" x2="1029.2861" y2="-261.9792" gradientTransform="matrix(1.760615e-03 1 -1 1.760615e-03 741.6273 -248.9341)">
		<stop  offset="6.477701e-04" style="stop-color:#2AFFE4"/>
		<stop  offset="1" style="stop-color:#0F00D4"/>
	</linearGradient>
	<path class="st3" d="M341.2,941.9c-39.3,0.1-71.2-33.3-71.3-74.5c-0.1-41.2,31.7-74.7,71-74.8l611.8-1.1
		c39.3-0.1,71.2,33.3,71.3,74.5c0.1,41.2-31.7,74.7-71,74.8L341.2,941.9z"/>
	
		<linearGradient id="SVGID_4_" gradientUnits="userSpaceOnUse" x1="844.4882" y1="609.9338" x2="672.2488" y2="-107.3438" gradientTransform="matrix(1.760615e-03 1 -1 1.760615e-03 741.6273 -248.9341)">
		<stop  offset="6.477701e-04" style="stop-color:#F0FF15"/>
		<stop  offset="1" style="stop-color:#FF9715"/>
	</linearGradient>
	<path class="st4" d="M185.9,585.1c-39.3,0.1-71.2-33.3-71.3-74.5c-0.1-41.2,31.7-74.7,71-74.8l611.8-1.1
		c39.3-0.1,71.2,33.3,71.3,74.5s-31.7,74.7-71,74.8L185.9,585.1z"/>
	<linearGradient id="SVGID_5_" gradientUnits="userSpaceOnUse" x1="803.1194" y1="991.3183" x2="810.5129" y2="978.5124">
		<stop  offset="6.477701e-04" style="stop-color:#94FFB0"/>
		<stop  offset="1" style="stop-color:#2B6A00"/>
	</linearGradient>
	<path class="st5" d="M792,984.9c0,0,6.6,0,14.8,0s14.8,0,14.8,0s-6.6,0-14.8,0S792,984.9,792,984.9z"/>
	
		<linearGradient id="SVGID_6_" gradientUnits="userSpaceOnUse" x1="357.0934" y1="601.4774" x2="179.0847" y2="-139.826" gradientTransform="matrix(-0.9144 0.4048 -0.5644 -1.2749 1102.8708 694.7624)">
		<stop  offset="6.477701e-04" style="stop-color:#460055"/>
		<stop  offset="1" style="stop-color:#391F7A"/>
	</linearGradient>
	<path class="st6" d="M489.7,130.1c-22.2-52.6-11-108.7,24.9-125.4c35.9-16.7,83.1,12.4,105.2,65l345.3,818.2
		c22.2,52.6,11,108.7-24.9,125.4c-35.9,16.7-83.1-12.4-105.2-65L489.7,130.1z"/>
</g>
</svg>
